<mxfile host="app.diagrams.net" agent="Mozilla/5.0 (Windows NT 10.0; Win64; x64) AppleWebKit/537.36 (KHTML, like Gecko) Chrome/129.0.0.0 Safari/537.36" version="24.7.13">
  <diagram name="第 1 页" id="acfvsxErxdkDnLbpC3O_">
    <mxGraphModel dx="1434" dy="738" grid="1" gridSize="10" guides="1" tooltips="1" connect="1" arrows="1" fold="1" page="1" pageScale="1" pageWidth="1169" pageHeight="1654" math="0" shadow="0">
      <root>
        <mxCell id="0" />
        <mxCell id="1" parent="0" />
        <mxCell id="KQjUhVb4Ml5_KQm--O5P-3" value="" style="shape=image;verticalLabelPosition=bottom;labelBackgroundColor=default;verticalAlign=top;aspect=fixed;imageAspect=0;image=data:image/png,iVBORw0KGgoAAAANSUhEUgAAAWYAAAFDCAYAAAAJR6STAAAACXBIWXMAAA7EAAAOxAGVKw4bAAAgAElEQVR4nO3dX4gc150v8O+vpnp8h0vPWqFD15GmZ1kRiDPCaBeMpEzyEK6FpeAHc1Fm9BYCiVhDCHjsNTgm2LJeEvDak0tY4kUxLH6KNDEXP5iMZAX24Vq25YddZfFsAokD09KcHjxEyczDoKnq+t2HPjWuafXf0XR3Tev7AYHcdbrqdFv969Onzvn9ACIiyhQZdAf2g8NT//s//vzn9b8fdD+oN77whfH//HTp//7DoPtBlPAH3YH94M9/Xv/7O/baoLtBPXLAnOSXLmWKN+gOEBHRTgzMREQZw8BMRJQxDMxERBnDwExElDEMzEREGcPATESUMQzMREQZw8BMRJQxDMxERBnDwExElDEMzEREGcPATESUMQzMREQZw8BMRJQxDMxERBnDwExElDEMzEREGcPATESUMQzMREQZw8BMRJQxDMxERBnDwExElDEMzEREGcPATESUMQzMREQZw8BMRJQxDMxERBnDwExElDEMzEREGcPATESUMQzMREQZw8BMRJQxDMxERBnDwExElDEMzEREGcPATESUMQzMREQZw8BMRJQxDMxERBnDwExElDEMzEREGdNxYA6CYMYYc6tUKh3sZYcSxWLxuDHmVrFYPN6P6xFlSRAELxtj1Bhz62//9m//wRjz3/fzWSgUCvkgCK4HQTCzl/2k3ujJiDkIgpeDILheKBTyvTg/0TArFovHReRcHMcnrLUTcRyvDrpP1F/+oDvQzOrq6kcAJgbdD6J+E5FJABgdHS0Pui80GE0Dc6lUOhhF0Q0Ah9xDC+njxWLxuOd5VwGMA4CqzlYqlQVjzGUAMwCQy+XWjTEL1trZZu2bXd+1fzuO4zPVanXJ9/0rnuf9Io7j74nIVwGsx3H8hAvgRH1V//lI/j0XCoW87/tXROQSgOcBwPO8/1WtVv8t/Zjv+8fK5fJK/XmDIHhZRM4DQBRFt40xCwCeqb+uqs4ln58gCGZEZD45p/vvy+4pC9ba2eT5nuflgyC47j5DbT+HNBgNpzIKhUI+DMNfqepFa62EYTiuqjtGr57nTYdhOGGtFVWdFZH5Uql00Fo7q6rnVfWDMAzHk38Uzdp301lVnVfVOWutALgiIvOcLqF+q/98xHF8QkTm6+aAn/d9/5i1duLu3bu2/rFGQRkAKpXKK6o6C+C27/uH0kG1E24aZN5NgwiAN9P9qvsMLQCY42coexoGZt/3T4vIZC6XuwgAa2trGwDm022stfPucajqMgBsbW2Vml2o2/aNqOrryQg5juPXROTA2NgY/1FRX9V/PqrV6pKqLovI6aSNql6sD76NHuuRfDIdYq29kv5Vyc/Q/tBsKmNKVZc3Nzc3Gh1M/Vz7aurh9WYX6bZ9C0u7eA7RXpsCcMhNNWw/qKpXUm0a/Vvt+b/f1dXVj4Ig+J6IXDbGQFXPVyqVV/rZB7p/zVZlLInIZLNv0mTE4H5qSRzHJwA0DOK7aU+UcUupqTpJ/tQFwIGpVCoLqSmWZ7lEbv9pGJhzudz7ABCG4TmgdsNBROYbtQUAz/OeA5AO4i0De4P2RPtGLpd73w00nk0eM8Z0fc9kNzY3NzfctMkMUPs1CmAuOR4EwUwSiN0Uyye97hPtvYaBuVwur8RxfEZEnjXGqLv7/GpyPIqiRVVddj/lFMAyUiPgJLC745fbtSfaT+o/H8YYVdXr/Zg/Xltb21DVOQCnjDGay+Vuicj15HgURYsA5tyxdRG5xVUX+48MugP7wcPB43rHXht0N6hHDpiT+EvlN/wsUGYwVwYRUcYMdOdfg00sAABV/SCKolPJ8jqiYcJ/99TOQAOzm5Pjtmt6oPDfPbXDqQwiooxhYCYiyhgGZiKijGFgTjHGfGyM+fGg+0FEw6eb+MLAvNNjIjLnNg0wQBPRXuo4vjAw11HVhwCAAZqI9lqn8aXlbqd00u4HlYjcrcb/46GK/eOgu0I98kVzFDn5bNDdoAeQiNyN4/g/KpXKV3c8PqgOZZHL4wGg9oa5b7efbOrUC9ySPby4JZv6oVl8sdb+sL4tpzLqiMhdAKqqr7t0jve8aUREu9FpfMlsMdYBuaGq71lrfzTojhDR0Ok4vjAwp1hrj7dvRUTUvW7iC6cyiIgyhoGZiChjGJiJulQoFPJBEFx/0GvpBUEwY4y51aykVrvj1BwDMxFRxjAwExFlDFdlEO2S53n5IAiui8hXAUBVZ1sVPi0UCnnf96+IyCUAzwOA7/vHtra2Sp7nXQUwnj5Pg/aHANz2ff9YFEU/BTDTyXWNMZcBwFo7C9R29AI4lVRLcTt8j1hrZ4vF4vFGfQEaVl7Zcc1Wx5u99n4UsN2POGIm2iVVnVfVOWutoBaE5gqFQr6Dpz7v+/4xa+1EuVxe8TxvOgzDCWutqOqsiMzXzcs+7/v+sTAMx5Nq86q64Nqfb9C+vp8LqjpRKBTyhUIhLyLTIjI+MjIyBQAickRVPwGAZn0pFAr5MAx/paoXrbXi+rJdhaXd8WavvaM3+gHEwEy0S6r6+urq6kcAEMfxayJyYGxsrG1gVtWL6aBkrZ1P6vyp6jIAbG1tlVLt58rl8oprc8XVBlx0xxbr29fL5XLvi8iBkZGRKReMy6q6ICKTLqA/mpynWV983z8tIpO5XO4iALg288k12h1v9tqpMU5lEO3e0v0+L/UTP53EZr3Vk0XkVjcFWzc3Nzd8378jIpMAoKplAEsiMrO1tbXsed5ytVpdatOXKVVd3tzcbHbddscTu33PHigcMRMNUDLS9H3/kLVW4jg+AWBPq2QnI20RmRGRU6q6mMvl3gfgeZ43A+Cva2trG236siQiky1+EbQ7Tl1gYCbKEM/zngOw58HNTVVMAShVq9UlN7LNA5hR1YY3DtN9cYEcYRieA2o3+kRke6qi3XHqDgMz0QBFUbSY3NBzaSGXsccjZgCoVqtLqroONzpeW1vbUNXrAEaSoNqqL+VyeSWO4zMi8qwxRt3qi1eT87c7Tt1hDtoOPBw8rszHPLyYj5myhiNmIqKM4aoMoj3UYJMFAMAtcTvVzWqK/XBd6o3MBGa34+jtOI7PJGtDifYbt0a30caKobwu9QanMoiIMiYzI2Y3SuY3PhE98FoG5iAIZkTksvvPhSQJSoMdQreThCSpua5X8XnilbaJVtJTGdVqdcn3/Sue5/0ijuPvueusx3H8BKc5iGjYNZ3KKBaLx0VkPo7jEy5Jy5vFYvF4KijfclVeRVUvRlF0o1HilVQylF8Ui8WuaurVJYm5IiLzHSaJISLKFGPMx8aYH3fStt0ccz7ZX2+tvbK6uvpRatvmM0mjJHFJGIZfSx5LEq8A2wvXP0nO1andJokhIsqgx0Rkzhij7QJ008C8urr6kap+T0QuG2PU5XAFGiQr2dzc3HCZqKbadKzd8XpMeEJEQ0NVHwKAdgG65RyzmxOWJHl2EARLqCUrOedGrhsAMDY2lo+iaFJVGwbSdseJBsnHZ3BbkIn6Ih2ggyD4RqVSSWf0ax6Yk0KTlUploVqtLonIJ0AtWUkURXAVFGaB7cQly1EULeZyuWSqYa5QKCyura1thGF4TkS2E50QZUmEL2LN/pZbsqmn0l/+InJXVR9S1flKpfLD+rZNA3MURYu+719JytKgtiojKTFzLIqiG8mF0ruLSqVS3l34ei6Xu2WMGUdq1cZevlAiov3EBeRRVX3dWvtis3ZNA7Pbwjnd6Fgnu4xU9aNKpfJPnXa4wTrm6QbHv9Lp+YiIMuaGqr5nrf1Ru4aZ2WBCtJ8ky0YBzLdan0+UsNZ2vFy4r4GZiVaIiNrb88DcapqDiVaIiNrjVAbRffA8Lx8EwfUkPUG71AOpnbOXUEtZAN/3j21tbZU8z7sKYDx9ngbtD8HdTHcro2Y6uW5yEz9Jq+D2JZxKfqkGQfCyiByx1s7W/7Kt7wtTJfQes8sR3Ye6tAELqC0T7WR3apKyYKJcLq94njcdhuFEKoXBfKMUB2EYjifln1R1wbU/36B9fT8XVHWiUCjkC4VCXkSmRWR8ZGRkCgBE5IiqflIoFPJhGP5KVS8mBVlFZD6dToGpEnqPgZnoPuw2bYCqXkwvH7XWzif3WNwuWmxtbZVS7efK5fJKUvHa3ZdZdMcW69vXy+Vy74vIgZGRkSkXjMuquiAiky6gP6qqi0nKhSTNgqsVuCwip+/3NVPnOJWRYoz5GMA1a+09C76Jmtjtbtbt5zXI1ggA662eLCK3urlZvrm5ueH7/p0kX42qllHbxTuztbW17HnessvqeBrAIVeQdfv5qnqlUd+pNzhi3qnjJCNEeyWVGOxQMn2APa6UnYy0RWRGRE6p6qLbiet5njcDVz0bwJKqfhCG4XiSPdJaK5VK5ZW97A+1xsBcp9MkI0S94nnecwD2fGrATXlMAShVq9Ull4gsD2BGVReA7SmPSd/3n02eZ4xpOX9Ne69dovyXReR8n/qSKekA/ZD+adDdoSHm0h/MpaYPXsMej5iB2nyxiKyLSDI6hltRciTJY1Mul1eKxeIZz/OuGmPOA7VVGeVyeYU3+PqHiVtSGiUZAfCTTZ164Y69NsCeUS8dMCfxl8pv+FmgzOBURh0RuQtAXZIR4Y1AIuo3rsrYqeMkI0TNDCr1AFMeDA8G5pRukowQNTOo1ANMeTA8OJVBRJQxDMxERBnDwExElDEMzEREfWCM+bjTDWsMzERE/dFxyofMBOZisXjcGHMrnV6QiGiYdJrygcvl6IHn47Mduz6Jei0doIMg+EalUklnFsxOYG5QJZuoLyJ8EWv2t9ySTT3VKOWDqs5XKpV7dhc3DczNyssADfPH3vZ9/1i5XF5JPe9VfF4Kp23pm2KxeNzzvLfjOD7j8sKyhA0RDRUXkEddyocXm7VrOMfcqrxMKijfSnK1qurFKIpuNCqFkyqV84tu549ZwoaIhsgNVf1na63XKigDTQJzq/IyqaTezyTtk3ZhGH4teSwphQPU0hqq6idJ9YROsYQNEQ0La+3xTvPwNFuVMYXPy8toLpdbT01bTKnqskuyDaBWtsbVKZtqc712x+uxhA0RPXCazTEvNctIFQTBjIiccyPXDQAYGxvLR1E0qaoNA2m740RE9LmGI+ZW5WWSSgdRFP00ORaG4TlXUn0xdZrtMu5hGJ5LztuTV0FENEQaBuZyubwSx/EZEXnWLYJWVb1eLpdXyuXyiu/7xwBMJ8cAnKofXYvI9Vwud8sYoyJyLlm10a8XRkS0X+352s1kuZyqzrVaHrefPBw8riwtNbxYWoqyJjNbsomIqKavO/9Y+oaGRbKeH8D8sPwybMbd8J/vxXSkMeYygBlV/UBE/h1AwxqbzTaoJc93bbbjSPq8+zG27HlgblXehqVviIZbEAQvo8E9p1bqgu6OjRdBEMwAmKtbWACgFpRVdSKKonEA8H3/Si6XexPArLV21u0mvnB/r2gwOJVBRJlUKpUOisgFVZ2rD/Jul/GjybG1tbUNVZ0D8GjdDuR9KTNJjIj2I8/z8kEQXE82YLXLCZNKaXAJtVwy8H3/2NbWVsnzvKsAxtPnadD+EFxuGrdkdSbdvtl13U97WGtngXtHtkEQvCwiR6y1sw2mHHec141E7+lrelohl8utG2MWUiPXe9q3e2/DMDwnIv+V7P5N59MJw3BSRPKjo6PlpP3o6Gg5iqK824G8r6eXOGImug91+VwWkFq/30aSS2aiXC6veJ43HYbhRCq3zHyj3DNhGI67PQO3VXXBtT/foH19PxdUdaJQKOQLhUJeRKZFZHxkZGQKAETkiKp+Up8nx11vx/Rjs75aa2dV9byqfhCG4XjyJdDBa7tHsVg8LiLn4jh+rcVr2rEDeZgwMKd0U/qFCNh9PhdVvZi+kWatnU9+rrv0Btja2iql2s+Vy+UV1+aKu6m16I4t1rev5zaNHRgZGZlywbisqgsiMpmaFlisz5PjrjefPle7vtbrtj0AeJ73HIDr6WySq6urH1lrJ5plmEylhtj3OJWx02Mi8qgx5gUAP7HWNrxDTJSy2zQD289rkEYXANZbPVlEbnWz0mBzc3PD9/07SSIxVS0DWBKRma2trWXP85Zdut3TrUai3fZ1N6/NTaU8Gsfxd1q1E5HJBqkhDsRxvO+DM0fMdTot/UK0V1IZGw8laXbhgs1eSUbaIjIjIqdUddGlSPA8z5sB8FfXZikV8O67r7t5bS7Fw51qtdr0S6/RyDv5e3reeb9qOWJ2NwTO96kvmZIO0A/pnwbdHXqAuJ/xe57eVlUXRWQGwO1qtbq0ubmJXC6XR2297z8BtSmPKIqS/DavuNHrfLNzNujrUn2Sszbtd3Dz86cAXKn/RZC++be6uvqRMea6O9+smzefV9VfDkPqh5aBuVKpvALglT71ZeCalX65i797YZD9ouEWRdGi7/tzLs0uALyGPR4xA7W86iKyLiLJ6BhuRcmRJMFYuVxeKRaLZzzPu2qMOR9F0W18Xo2obV+TwO6OL4Rh+N1uXls3mSjdua+kPrcL1tqhiFfMD5DiEi7dVdVR1OaYXwSYK2PYMVfG4LhNIgu92D2ZbDAJw/Bb+23nH+eYd+q49Mv9+RRvfPMgDh5M/fnmG/i0UdNrczh48CDmGnwvXJs72PRY7TJv4JsHD+KbbzQ8887z1F/fPbf+3NfmDuJg3YOfvvHNHa+ldr0Gr3H7zxyudfAeNLoWDR8RuRwEwfW9LBtnjLnsed6HqsqKR8Pq4eBx3Vt/1J+fNvrMezv/23z+wLb3njF6+vTpro+lj5/++R9bd+e9Z9SYZ/S9ex6r71Otn5+f7z19xhg1p3+u6Sv88eendWeX3tNnzGnd2Y3278F7zzR+T/baw8Hj2v5fQedKpdJBY8ytJC1u8mevg09Wrkt7jyPmTDiMp587C/zuD/eMWl+7dBbP/ctTOHrpXTQcOz71FM5eeg33DIrdcx955GYHl/8yjuIS3k1d4Nq7l3D06NGdffr0Kt65eRRPPXG41mbu27h09i2s/PppHE6f7ulfY/5k+8vWdaLxe7APlcvlFWvtRFKsOPlTqVSme/mTelDXpb3HwJxhn159BzfPPomTh5/AU0d3Bs7PPYEnz97EO1c/vee5eOkHeLKTCx1+Ak8dBX73h+Qcn+IPvwMeeeopHL35DrZP/envcfPoU3jiMFzgP4qXftB1BCaiNhiYM+Ea5r59CUefeiI18vwUV9+5ibNPngRwGE88dRSXXms8D33yBy8BF36WGlFfw88uYHtk217t/DffuVo7/6dX8c7Ns3jy6Sfw1NGb+L276LV3LwGPfKnWx09/j5t4BF/q9BJtNXoPiB5MDMwDdOnbyY2v1/Dl/7eCXz+dCklJcHQD0sNP1I1e09yI+jU3n/HpG6/h0tnn8HQXEe7wlx4Bbv7eBebf10bqOIwvPQJcevcaklH02Sf3doTc8j0gekAxMA/Q2bdWsLKygrfO3sSF79etSPjZBdzEJXw7WbHw9Qu4iXunLGpq87O1EW96pN2Fk0/irJtnvvbuJRz98mH3sJv3rfuiqM1L/w5/uM8J4VbvAdEw6SYXDwNzBpycfwtnb17A97fv4F3Du5c+D1rbf946+/l0wz0neRJnb17Az+Z+hgt4Cd1P/Z5ELQa/gXcvfX6Dr3bed3D16u9x8+iXP59mOFyb5mj8RdG9e98DoqHzWKepHloG5mKxeNwYc6tYLB5vdDwIghljzK1WKfzanYMA4CTm3zqLmxe+X1tdce1dXEJqdLrdzAXfhjcBT+IHLx3FpUu7n6c9+eRZ3HznHfxux9zxYXz56E28887v6s57GE//y0vAha/fs9b42lyLtdXNr77zPSAaQtphLh5ml8uKkz/AS0e/jgvffwP/85FLwNm3cO+gtzaq/fa71zB/8t6jh59+DmcvvIsndztPe/jLOHrzEm6efS517dqNwQsXbuLsc3XnPfw0fr3yBN745tdxMPXVfPatlV0sl8OO9+CJXz9de+zSt3HwUqrN0Zfw/+qW590vH5/t2I5P1GvpAB0EwTcqlUo6+979bcnuZZHGLOGW7OHGLdnUD41y8aBJeuGWI+b6bE7tSs60O4fL93rF87xfxHH8PZejdT2O4yeaJb8mIhoWSS4eVX29VdqHjm/+dVJyplO6sxzPFRGZ55bRXruGuUZ5K5rl6CCivdZxLp6O55hTCa+3S84EQTCPurIzndC6cjye5/1bs/yttFdOYn5lpfv/WUS0J6y1HS+A6Obm35TuXfHD3ZbjIcqMpGwSgPndpK1MFaK4rar/KCL/mkwb1h8fxH2cXt5DSipqa6124amRkZGpukraHyQVvFs9v75t/Xn3a46QbtYxtyw5Q0SdS1WBPmGtnVDVtVbHs35zPQiCl7vNYqeqs5VKZRoAPM973vf9ryTTpACQy+XebPQ8l8N5IgzD8fq21trZOI5PiMi+DMiJjgNzUuHAlZxBqVQ6KCL8ZUy0C0lR1KQ+XX0F6Prjw2xtbW3DWvut5MsnVZl7un6PRKqi99za2trG2trahqrOAXi01X6K/abjqYx2JWeIHlSe5+VdiaavAtsjwaZTG+lamkkJJnev5e04js+IyOn649ba2QYVp9tOcbif9rDWzibXBnAq+Znv+nLEWjvbbtWVW2GVnm6YrVQqC+lphVwut570t1n7Dt/W7anT9MquMAwnRSSf/sIaHR0tR1GUD8Pwa/V93q9ajpjrv8Xdf/+Ny/M6Ya39P+1+ZqXPsba2tlGpVKbT/3Pc8a9k/acaUTN1q4wWAMy1+klfqVReUdVZ1ALroSRotjqeCsq3kjzLqnoxiqIbrUaKqrqgqhOFQiHvCpZOi8j4yMjIFACIyBFV/aSTVVee502HYTjhrj0rIvOlUumgtXZWVc+r6gdhGI4nr6dZ+3bvp/s1fg4NCrK617RX97oyi7kyiO5T/SojETmw1/diUquinkkey+VyFwHAjRQbyuVy74vIgZGRkSkXjMuquiAik6lpgcXk/Mk5U9MJ26y180mgVNVlANja2io1u3a37YHaDccoim6r6kVXDPqeAWK9zc3NjeT8w2JPtmQ3+AkEoP2dVaIh0Y9VRvesitrc3NzwfX8ZwFSzJ7k2d5I5a1Uto3Yjf2Zra2vZ87xlt/HrdKuRaINpFABYb3bdbtsD29Mup+I4PtFqw1lqEcIGsF1Z+0Acx0MTnPdkxMySNkQ9d8+qqLGxsbwLuE2/GNzn74qIzIjIKVVddDfyPc/zZgD81bVpueoqNWI/ZK2VOI5PoMW+g27bp1ZaNB0ZA41H3snfh+lGKacyiPaBZFVUFEU/TR4Lw/Ccqi5HUbTY6rmquojaqLpUrVaX3Kg4j9p634X0+TtddeV53nPuHImWgb1B+20u8+R0stKi0fEkQ6UL2tfd+eDmzedV9ZfDdJ+KgZloHyiXyyu+7x8DMJ1Uv0ZqdUWr51ar1SVVXYcbHbslZtcBjCQBuVwur7gVIc8aY9RNTb6anCOKokX3JXDbXXsZqRFw6ovjtjHmcrv2DeQ9z/uwQYXvmfqGYRh+V1UnjDGay+XWReRWMh89LJhRqwPMLjfcmF2u/9zUxcJudky245bXXQjD8Fv7dSqVI+aUbkq/ENH9EZHL3e4WbMcYc9nzvA9VdV/vUOYoIcUYo43ypHLEPNx6MWLu50olrooaPgzMKc0SWW/q1AsMzMOLUxmUNS3XMae3jj5o0qVfHtI/Dbo7RPQAaRmY3Z3Oobrb2UqjEbOqzt/F370wyH4R0YOFN//qiMhdAOpKv0ijelxERL3EKtk73VDV96y1Pxp0R4houBhjPgZwrZPBHgNzSjelX4iIuvSYiDxqjHkBTapjJziVQUTUJ+lFBW53Y8N9Exwx0wPPx2c7bvwS9Vo6QAdB8I1KpZLOwsfATBThi1izv+U6ZuqpZqu+KpXKPVMaDMxERH3iAvKoW/X1YrN2DMxERP3R8aovBmYioj7oZtUXV2UQEWUMAzMRUcYwMBMRZQwDMxFRxjAwExFlDAMzEVHGMDATEWUMAzMRUcYwMBMRZQwDMxFRxjAwExFlDAMzEVHGMDATdalUKh00xvx3sVh8YEqRBUEwY4y5VSqVDu7mOAAYYy4bYzQIguuFQiGfPO7ez48aPTd5TqPnddq22XWzjIGZiPpGVWcrlcr02traBgAEQfByFEW3ARyqb2uMuayqE2EYjodhOA4AuVzuzUbnbdXWWjsbx/EJEdno2QvbYwzMRDQQxpjLInIkjuMTAHYETTd6flRV59bW1jbW1tY2VHUOwKP1I+tu2u4XzMdM1AOFQiHv+/4VEbkE4HkA8H3/2NbWVsnzvKsAxoHtEeRCg/aHANz2ff9YFEU/BTCTbt/susaYy0BtlAjURqQATkVRdGptbW0jCIKXReSItXa2WCweb9QXoBbsoii6gc9Hsjuu2ep4s9ceRdGOviZ9bDQlFIbh10QkPzo6Wk4eGx0dLUdRlA/D8GvFYnHZ87y34zg+E4bhZKu29X3fDzhiJuqt533fP2atnSiXyyue502HYThhrRVVnRWR+bpR3fO+7x8Lw3BcVZejKLqtqguu/fkG7XdQ1QVVnSgUCvlCoZAXkWkRGR8ZGZkCABE5oqqfAECzvhQKhXwYhr9S1YvWWnF9mUiu0e54s9fe7Runqsubm5sdTT9003Y/YGAm6iFVvZgOStba+WR+VVWXAWBra6uUaj9XLpdXXJsrqvpBFEWL7thifft6uVzufRE5MDIyMuWCcVlVF0RkMvWTf7FVX3zfPy0ik7lc7iIAuDbzyTXaHW/22u/X5ubmRtLP1dXVj6y1E6urqx+1a7sfcSqDqLeWkr+kfuKnS9Wvt3qyiNxKgmcnNjc3N3zfvyMikwCgqmUASyIys7W1tex53nK1Wl1q05epNiPQdscTS22OtyQik2NjY3m4+eexsbF8FEUH4ji+J+B203Y/4IiZqE+Skabv+4estdLoptf9SkbaIrOo1VAAAA8ySURBVDIjIqdUdTGXy70PwPM8bwbAX9fW1jba9GUpFegaaXf8vjX6NZH8PT2X3G3b/YKBmWhAPM97DsCeBzc3VTEFoFStVpfcyDYPYEZVG94IS/fFBXKEYXgOqN3oE5HtqYp2x/eCm6K47voFN18+r6q/LJfLK8Vi8bgx5laxWDzeru1e9qtfGJiJ+iSKosXkhp4xRgEsY49HzABQrVaXVHUdbnTslo9dBzCSBNVWfSmXyytxHJ8RkWeNMepWX7yanL/d8b0ShuF3VXXCGKO5XG5dRG5VKpVX7rftfiCD7sB+8HDwuN6x1wbdDeqRA+Yk/lL5DT8LPeY2gSy0Wu7XK25p4IUwDL/VzZz9oHDETER9IyKX+7012hhz2fO8D1V1X2zHBrgqg2jXGmyyAAC4JW6nejUyG9R171eyoeRBue79YGAm2iV3Y6nRxoqhvC71D6cyiIgyhoGZiChjGJiJiDKGgZmIqA+MMR8bY37cSVsGZiKi/nhMROZclZWWATqzgTm95XLQfSEi2guq+hAAtAvQXC5HDzwfn8FtSybqi3SADoLgG5VKJZ3lL7uB2SUm4VpN6rkIX8Sa/S23ZFNPpb/8ReSuqj6kqvOVSuWH9W27CswNdhx9AuBh3/ePlcvllQY5Xm8nx4BaJV0RueyOLbTakeP2tr8dx/GZarW65Pv+Fc/zfhHH8ffc+dfjOH6iWaJsol5xn4PfxHH8Hf77o264gDyqqq9ba19s1q7jOeYkKNeVk9lO8p0KyresteLK1VyMouhGqVQ6WCwWj4vIfBzHJ6y1AuDNbuePVXVeVefc86+IyPx+KUdORA+8G6r6z9Zar1VQBroIzK6oIdqVm/F9/5nksaRt8lwA+aSygrX2SrejDVV9PXlOHMeviciBXibrJiLaK9ba49baH3XStpupjK7LzbgyN8sAplZXVxeCIPieiFw2xkBVz+8iX+p9laoh6pf9UCW7fmqyvi+cOhycbpbLdV1uZmxsLBkhLwFApVJZSMrYiMizQRDM3EffifaDTFbJrq907T6T8+npRU4dDk7HgbnTcjPu2x1JW/ePazEIgpkkELsKC5/s1YsgyqqsVsmur3TtPpPLInI61RdOHQ5Ix4G5k3Izvu8fAzDtFk4rUj+h3D+uubrSL32vZEDUZzuqZAdBcD35fHie9yHa1PzbTZVsVb0jIpMiMllXJbsEYLlarS6hVhPwUFJayn0mv1p3Ok4dDkhXy+Xct+ffJP/tlr9tH2+VJ9b945ru8lrpc003OP6VTs9HNGjpytRJQVHP897ey2u4eeQrIjKD2rzwxdHR0XIURWfTVbKDIFhqllif0xWDl9kt2UTDbpBVst2Ux6Tv+88mzzPGtJy/pv4ZaGAulUoHjTG3kp92yZ9+1wQj6ocsVcmun5o0xqiqXk/Ph9PgcBtqB1gle7ixSjZlDacyiIgyJrNJjIiyjlWyqVcYmIl2iVWyqVc4lZHSTekXIqJeYWDeqePSL0REvcLAXKfT0i9ERL3S1Ryzy0x1vkd9yZR0gH5I/zTo7hDRPmeM+RjANWvtPRVL6nHtZkqj0i8AfrKpUy9wHfPw4jpm6gdjjKbjSqsAzamMOiJyF4C60i/SybcbEVEnWCV7d26o6nudVhmg4cAq2dRv+7ZK9iBYa7uqQUjDgVWyqR96ViWbiIh2r9Mq2QzMRET90fFUKQMzUZdcrorfxHH8nWEqTuoKX8z7vn9sr9N/uiKxM6r6gYj8O4CGN9WbFZtNnu/abOcESZ8363lCupkq5aoMIupaEAQvd5s33QXdaWvti27F0/YfVZ1N1zdMM8ZcVtWJMAzHwzAcB4BcLvcmUKsG7grJZjYg7wYDMxENlCvsfEFV5+pHvKkCsnOppP9zAB4d5mornMog6oFCoZD3ff+KiFwC8DwA+L5/bGtrq+R53lUA48DnP90btD8E4Lbv+8dc5fmZdPtm13U/7WGtnQVqI1ukiiK73btHrLWzDdKH7jivq0l4T1/T0wq5XG7dGLNgrZ1t1r7dexWG4TkR+a9kWiiphRjH8ZkwDCdFJD86OlpO2rsahvkwDL9W3+dhwREzUW897/v+MWvtRLlcXvE8bzoMw4nk57uI1NfZe973/WNhGI4nZahUdcG1P9+g/Q6quqCqE4VCIV8oFPIiMi0i4yMjI1MAICJHVPWTQqGQD8PwV6p60Vor7no7Uok266u1dlZVz6vqB2EYjidfAh28tnsUi8XjInIujuPXWrymZVe38IHBwEzUQ6p6MX0jzVo7n/xcV9VlANja2iql2s+Vy+UV1+ZKet7VFVnd0b6eK7J6YGRkZMoF47KqLojIZGpaYDGp2J3L5S4C21Xs59PnatfXet22B7YL0l5P30RdXV39yFo70ezG6ubm5kZy/mHFqQyi3lpK/pKarkjv8lpv9WQRudXNSoPNzc0N3/fviMgkAKhqGcCSiMxsbW0te563XK1Wl3zfP91qJNptX3fz2txUyqNxHH+nVTsRmRwbG8vDFa4dGxvLR1F0II7joQ3OHDET9UkySvV9/5C1VuI4PoE9rpKdjLRFZEZETqnqoquM7XmeNwNXORu1YJ0EvPvu625eWxiG51T1TrVaXWrWptHIO/l7et552DAwEw2I+xnf8XKzTrkpjykApWq1uuRGxXnU1vsuALUpD6AWHIHtlRHzzc7ZoK8tA3u71+aW2Z0CcKX+F0GxWDxujLlVLBaPu+mM6+58cPPm86r6y71ea50lDMxEfRJF0WJyQ8/lTVjGHo+YAaBarS6p6jrc6NgtMbsOYCQJyOVyeSWO4zMi8qwxRt3qjFc77WtyHnf8crevbWxsLO+mW5qOlhNhGH5XVSeMMZrL5dZF5FalUnlld+/O/sDELR14OHhcmY95eDEfc++5TSILnSyf65ZbXnchDMNvZXnnXzc4YiaivhCRy93uFmzHGHPZ87wPVXXPp4QGiasyiHapwQYNADtzOQzTde9HstZ5v5x30BiYiXbJ3XyaaNtwSK5L/cOpDCKijGFgJiLKGAZmIqKMYWAmIuoDY8zHzapi12NgJiLqj8dEZM4Yo+0CNAMzEVGfqOpDANAuQHO5HD3wfHy2o7Q8Ua+lA3QQBN+oVCrprHwMzEQRvog1+1tuyaaeSn/5i8hdVX1IVecrlco9hWkZmImI+sQF5FFVfd1a+2KzdgzMRET9cUNV37PW/qhdQwZmIqI+sNYe77QtV2UQEWUMR8xEu+AyvP0mjuPvNCsamgiC4GUROQ/gtqr+o4j8axzHZ5LnpY/7vn+s35U5giCYEZH5XlzbGHMZtcopH0RRdGpkZGTK87yrAMaB9hnxkufXt60/bxYz6t0PjpiJeqhYLB4XkXNxHJ+w1k6o6lqr41kvlxQEwcvd5lRW1dlKpTINAJ7nPe/7/lestRKG4TgA5HK5Nxs9zyXXnwjDcLy+rbV2No7jEyIyVAE5wcBM1ENJteqkcOjq6upH1tqJZLRcf3yYra2tbVhrv5V8+bhR7jyA6VKpdDDd1v33o6o6lyqPNQfg0fq2w4hTGUQ9kpqiSGrjLcRx/JrneW+7enun649ba2cLhULe9/0rIpJsOmg7xeF+2m8njg+C4GUAp5Kf+a4vR6y1sw0S7e8o9+RKNaWnG2YrlcpCelohl8utJ/1t1r7Dt2lKVZc3Nzc33HnejuP4TBiGkyKST39hjY6OlqMoyodh+LX6Pg8bjpiJeqRSqbyiqrOoBdZD9dU2Gh1PBeVb1lqx1oqqXoyi6EarkaKqLqjqRKFQyLtK0tMiMj4yMjIFACJyRFU/KRQK+TAMf6WqF5PpBFXdkXTf87zpMAwn3LVnRWS+VCodtNbOqup5Vf0gDMPx5PU0a9/u/XGVuc+hQaVs95qWXYXvBw4DM1GG+L5/WkQmfd9/Jnksl8tdBAA3Umwol8u9LyIHRkZGplwwLqvqgohMpqYFFpPzJ+dMTSdss9bOJ4FSVZcBYGtrq9Ts2t22B2o3HKMouq2qF5OK1/XTPPU2Nzc3kvMPO05lEGXLVP1IcXNzc8P3/WUAU82e5NrcSeasVbUMYElEZra2tpY9z1uuVqtLvu+fbjUSbTCNAgDrza7bbXtge9rlVBzHJ1qtaBGRybGxsTyADQAYGxvLR1F0II7joQ/OHDETZctSKiABqAUkF3CXmj3JjViviMiMiJxS1cVcLvc+AM/zvBkAf3Vt7jl/WmrEfshaK3Ecn4ALjHvRPrXSounIGGg88k7+/iDcKGVgJsoQF0wRRdFPk8fCMDynqstRFC22eq6qLqI2qi5Vq9UlNyrOo7bedyF9/jAMzwHb87zzzc7ped5z7hyJloG9QfttxWLxOIDpZKVFo+PGmFvFYvG4C9rX3fng5s3nVfWXWV9SuBcYmIkypFwur/i+fwzAtMvXq0itrmj13Gq1uqSq63CjY7fE7DqAkSQgl8vlFbci5FljjLrVGa8m54iiaNF9Cdx2115GagSc+uK4bYy53K59A3nP8z5MXlvyJwiCmfqGYRh+V1UnjDGay+XWReRWMh897JjqsAMPB4/rHXtt0N2gHjlgTuIvld/ws9ADbupioYvlcx1zy+suhGH4Le78IyLqgohc7na3YDvGmMue532oqnt2zizhqgyi+9BgswaA9jkgsn6tvVK/djvr580KBmai++BuRE20bbjPrkWDxakMIqKMYWAmIsoYBmYiooxhYCYi6gNjzMfGmB930paBmYioPx4TkTm3qaZlgGZgJiLqE1V9CADaBWgul6MHno/P4LYTE/VFOkAHQfCNSqWSzs7HwEwU4YtYs7/llmzqqfSXv4jcVdWHVHW+Uqn8sL4tAzMRUZ+4gDyqqq9ba19s1o6BmYioP26o6nvW2h+1a8jATETUB9ba45225aoMIqKMYWAmIsoYBmYiooxhYCYiyhgGZiKijGFgJiLKGAZmIqKMYWAmIsoYBmYiooxhYCYiyhgGZiKijGFgJiLKGAZmIqKMYWAmIsoYBmYiooxhYCYiyhgGZiKijGFgJiLKGAZmIqKMYWAmIsoYBmYiooxhYCYiyhgGZiKijGFgJiLKGAZmIqKMYWAmIsoYBmYiooxhYCYiyhgGZiKijGFgJiLKGAZmIqKMYWAmIsoYBmYiooxhYCYiyhgGZiKijGFgJiLKGH/QHdgPvvCF8f88YE7+/aD7Qb3xhS+M/+dfKoPuBdHn/j91z8qcYsc7UwAAAABJRU5ErkJggg==;" vertex="1" parent="1">
          <mxGeometry x="170" y="540" width="358" height="323" as="geometry" />
        </mxCell>
      </root>
    </mxGraphModel>
  </diagram>
</mxfile>
